<svg width="60" height="64" viewBox="0 0 60 64" fill="none" xmlns="http://www.w3.org/2000/svg">
<path d="M47.4995 10.6172H12.4995C10.5104 10.6172 8.60273 11.4562 7.19621 12.9495C5.78969 14.4429 4.99951 16.4683 4.99951 18.5802V45.1234C4.99951 47.2353 5.78969 49.2607 7.19621 50.7541C8.60273 52.2474 10.5104 53.0864 12.4995 53.0864H47.4995C49.4886 53.0864 51.3963 52.2474 52.8028 50.7541C54.2093 49.2607 54.9995 47.2353 54.9995 45.1234V18.5802C54.9995 16.4683 54.2093 14.4429 52.8028 12.9495C51.3963 11.4562 49.4886 10.6172 47.4995 10.6172ZM45.8245 15.9259L29.9995 28.5339L14.1745 15.9259H45.8245ZM47.4995 47.7777H12.4995C11.8365 47.7777 11.2006 47.4981 10.7317 47.0003C10.2629 46.5025 9.99951 45.8274 9.99951 45.1234V19.2438L28.4995 33.9753C28.9322 34.3199 29.4586 34.5061 29.9995 34.5061C30.5404 34.5061 31.0668 34.3199 31.4995 33.9753L49.9995 19.2438V45.1234C49.9995 45.8274 49.7361 46.5025 49.2673 47.0003C48.7984 47.4981 48.1625 47.7777 47.4995 47.7777Z" fill="#F9F9F9"/>
</svg>
