<svg width="50" height="50" viewBox="0 0 50 50" fill="none" xmlns="http://www.w3.org/2000/svg">
<path d="M14.2671 17.5159L8.53456 22.7273H37.4999C38.1629 22.7273 38.7988 22.9667 39.2677 23.3929C39.7365 23.8192 39.9999 24.3972 39.9999 25C39.9999 25.6028 39.7365 26.1808 39.2677 26.6071C38.7988 27.0333 38.1629 27.2727 37.4999 27.2727H8.53456L14.2671 32.4841C14.5059 32.6937 14.6964 32.9445 14.8274 33.2218C14.9584 33.4991 15.0274 33.7973 15.0303 34.0991C15.0331 34.4009 14.9699 34.7001 14.8442 34.9794C14.7185 35.2587 14.5328 35.5125 14.2981 35.7259C14.0634 35.9393 13.7842 36.108 13.477 36.2223C13.1698 36.3366 12.8405 36.3941 12.5086 36.3915C12.1766 36.3889 11.8486 36.3262 11.5436 36.207C11.2386 36.0879 10.9627 35.9148 10.7321 35.6977L0.731974 26.6068C0.263291 26.1806 0 25.6026 0 25C0 24.3974 0.263291 23.8194 0.731974 23.3932L10.7321 14.3023C10.9627 14.0852 11.2386 13.9121 11.5436 13.793C11.8486 13.6738 12.1766 13.6111 12.5086 13.6085C12.8405 13.6059 13.1698 13.6634 13.477 13.7777C13.7842 13.892 14.0634 14.0607 14.2981 14.2741C14.5328 14.4875 14.7185 14.7412 14.8442 15.0206C14.9699 15.2999 15.0331 15.5991 15.0303 15.9009C15.0274 16.2027 14.9584 16.5009 14.8274 16.7782C14.6964 17.0555 14.5059 17.3063 14.2671 17.5159ZM47.5 0H27.4998C26.8367 0 26.2008 0.239447 25.732 0.665666C25.2631 1.09189 24.9997 1.66996 24.9997 2.27273C24.9997 2.87549 25.2631 3.45357 25.732 3.87979C26.2008 4.30601 26.8367 4.54545 27.4998 4.54545H44.9999V45.4545H27.4998C26.8367 45.4545 26.2008 45.694 25.732 46.1202C25.2631 46.5464 24.9997 47.1245 24.9997 47.7273C24.9997 48.33 25.2631 48.9081 25.732 49.3343C26.2008 49.7606 26.8367 50 27.4998 50H47.5C48.163 50 48.7989 49.7606 49.2678 49.3343C49.7366 48.9081 50 48.33 50 47.7273V2.27273C50 1.66996 49.7366 1.09189 49.2678 0.665666C48.7989 0.239447 48.163 0 47.5 0Z" fill="white"/>
</svg>
