<svg width="55" height="55" viewBox="0 0 55 55" fill="none" xmlns="http://www.w3.org/2000/svg">
<path d="M13.7821 18.3474C14.044 16.2763 16.7355 13.4616 18.8716 13.7739L18.8682 13.7705C20.947 14.1655 22.5926 17.7435 23.5205 19.3523C24.178 20.5196 23.7511 21.7023 23.1378 22.2014C22.3105 22.8682 21.0169 23.7882 21.2883 24.712C21.7708 26.3542 27.5 32.0833 30.3178 33.712C31.3844 34.3285 32.1578 32.7025 32.8183 31.8695C33.2981 31.2288 34.4818 30.8458 35.6464 31.4783C37.3858 32.4912 39.0243 33.6685 40.5396 34.9937C41.2963 35.6262 41.4739 36.561 40.9496 37.549C40.026 39.289 37.3549 41.5837 35.4159 41.1173C32.0293 40.3031 18.3333 34.9937 13.9341 19.6121C13.6867 18.8844 13.749 18.6093 13.7821 18.3474Z" fill="#F9F9F9"/>
<path fill-rule="evenodd" clip-rule="evenodd" d="M27.5001 52.7084C24.696 52.7084 23.1445 52.4075 20.6251 51.5625L15.7998 53.9752C12.7523 55.4989 9.16675 53.2829 9.16675 49.8756V44.6875C4.23176 40.0859 2.29175 34.78 2.29175 27.5C2.29175 13.5778 13.5779 2.29169 27.5001 2.29169C41.4222 2.29169 52.7084 13.5778 52.7084 27.5C52.7084 41.4221 41.4222 52.7084 27.5001 52.7084ZM13.7501 42.6945L12.2925 41.3353C8.45832 37.7603 6.87508 33.7634 6.87508 27.5C6.87508 16.1092 16.1092 6.87502 27.5001 6.87502C38.891 6.87502 48.1251 16.1092 48.1251 27.5C48.1251 38.891 38.891 48.125 27.5001 48.125C25.2412 48.125 24.1817 47.9211 22.0825 47.2171L20.2778 46.6118L13.7501 49.8756V42.6945Z" fill="#F9F9F9"/>
</svg>
